<?xml version="1.0" encoding="utf-8"?><!-- Uploaded to: SVG Repo, www.svgrepo.com, Generator: SVG Repo Mixer Tools -->
<svg width="800px" height="800px" viewBox="0 0 32 32" class="cls-2" id="icon" xmlns="http://www.w3.org/2000/svg">
<defs>
<style>
.cls-1{fill:none;}

.cls-2{
    fill: #CBE432;
    animation: slidein 2s infinite;
}

@keyframes slidein {
    0% {
        fill:#FDDEF3;
    }
    50% {
        fill:#CBE432;
    }
    100% {
        fill:#FDDEF3;
    }
}
</style>
</defs>
<title>popup</title>
<path d="M28,4H10A2.0059,2.0059,0,0,0,8,6V20a2.0059,2.0059,0,0,0,2,2H28a2.0059,2.0059,0,0,0,2-2V6A2.0059,2.0059,0,0,0,28,4Zm0,16H10V6H28Z"/><path d="M18,26H4V16H6V14H4a2.0059,2.0059,0,0,0-2,2V26a2.0059,2.0059,0,0,0,2,2H18a2.0059,2.0059,0,0,0,2-2V24H18Z"/><rect id="_Transparent_Rectangle_" data-name="&lt;Transparent Rectangle&gt;" class="cls-1" width="32" height="32"/></svg>