<?xml version="1.0" encoding="utf-8"?>
<!-- Generator: Adobe Illustrator 25.2.0, SVG Export Plug-In . SVG Version: 6.00 Build 0)  -->
<svg version="1.1" id="Layer_1" xmlns="http://www.w3.org/2000/svg" xmlns:xlink="http://www.w3.org/1999/xlink" x="0px" y="0px"
	 viewBox="0 0 150 150" style="enable-background:new 0 0 150 150;" xml:space="preserve">
<style type="text/css">
	.st0{fill:#FDDEF3;stroke:#FDDEF3;stroke-width:2;}
</style>
<path class="st0" d="M75,6c38.1,0,69,30.9,69,69s-30.9,69-69,69S6,113.1,6,75c0-18.3,7.3-35.9,20.2-48.8C39.1,13.2,56.7,6,75,6z
	 M43.4,49.4h63.2c2.3,0,4.1,1.8,4.1,4.1v43.5c0,0.8-0.3,1.6-0.7,2.2c-0.1,0.2-0.2,0.4-0.4,0.6c-0.1,0.1-0.2,0.2-0.4,0.3
	c-0.7,0.6-1.7,0.9-2.6,1H43.4c-1.1,0-2.1-0.4-2.9-1.2c-0.8-0.8-1.2-1.8-1.2-2.9V53.5C39.3,51.2,41.1,49.4,43.4,49.4z M42.4,95.2
	L64.6,73L42.4,54.9C42.4,54.9,42.4,95.2,42.4,95.2z M67,75L44.2,97.9h61.4L83.8,75l-7.2,6.1l0,0c-0.6,0.5-1.4,0.5-2,0L67,75L67,75z
	 M86.1,72.9l21.3,22.5V54.7C107.4,54.7,86.1,72.9,86.1,72.9z M44.4,52.5l31.1,25.3l29.8-25.3H44.4z M120.8,29.2
	c-25.3-25.3-66.3-25.3-91.6,0s-25.3,66.3,0,91.6s66.3,25.3,91.6,0c12.1-12.1,19-28.6,19-45.8C139.8,57.8,133,41.3,120.8,29.2z"/>
</svg>
